<?xml version="1.0" encoding="UTF-8" standalone="no"?>
<!-- Created with Inkscape (http://www.inkscape.org/) -->

<svg
   xmlns:dc="http://purl.org/dc/elements/1.1/"
   xmlns:cc="http://creativecommons.org/ns#"
   xmlns:rdf="http://www.w3.org/1999/02/22-rdf-syntax-ns#"
   xmlns:svg="http://www.w3.org/2000/svg"
   xmlns="http://www.w3.org/2000/svg"
   xmlns:sodipodi="http://sodipodi.sourceforge.net/DTD/sodipodi-0.dtd"
   xmlns:inkscape="http://www.inkscape.org/namespaces/inkscape"
   width="4458.7417"
   height="616.09027"
   id="svg3006"
   version="1.1"
   inkscape:version="0.48.2 r9819"
   sodipodi:docname="logo.svg"
   inkscape:export-filename="/Users/mayer/Downloads/lunchbox-logo.png"
   inkscape:export-xdpi="6.9748144"
   inkscape:export-ydpi="6.9748144">
  <defs
     id="defs3008" />
  <sodipodi:namedview
     id="base"
     pagecolor="#ffffff"
     bordercolor="#666666"
     borderopacity="1.0"
     inkscape:pageopacity="0.0"
     inkscape:pageshadow="2"
     inkscape:zoom="0.1767767"
     inkscape:cx="2080.1524"
     inkscape:cy="303.64946"
     inkscape:document-units="px"
     inkscape:current-layer="text3830"
     showgrid="false"
     inkscape:window-width="1920"
     inkscape:window-height="1152"
     inkscape:window-x="0"
     inkscape:window-y="0"
     inkscape:window-maximized="1"
     fit-margin-top="50"
     fit-margin-left="50"
     fit-margin-right="50"
     fit-margin-bottom="50" />
  <metadata
     id="metadata3011">
    <rdf:RDF>
      <cc:Work
         rdf:about="">
        <dc:format>image/svg+xml</dc:format>
        <dc:type
           rdf:resource="http://purl.org/dc/dcmitype/StillImage" />
        <dc:title />
      </cc:Work>
    </rdf:RDF>
  </metadata>
  <g
     inkscape:label="Layer 1"
     inkscape:groupmode="layer"
     id="layer1"
     transform="translate(-63.423376,-216.60192)">
    <g
       transform="translate(177.59544,329.44052)"
       id="g2989">
      <path
         sodipodi:type="arc"
         style="fill:none;stroke:#000000;stroke-width:18.35337448;stroke-miterlimit:4;stroke-opacity:1;stroke-dasharray:none"
         id="path3041"
         sodipodi:cx="-21.071428"
         sodipodi:cy="213.1604"
         sodipodi:rx="222.5"
         sodipodi:ry="222.5"
         d="m 201.42857,213.1604 c 0,122.88336 -99.61664,222.5 -222.499998,222.5 -122.883362,0 -222.500002,-99.61664 -222.500002,-222.5 0,-122.883356 99.61664,-222.4999996 222.500002,-222.4999996 122.883358,0 222.499998,99.6166436 222.499998,222.4999996 z"
         transform="matrix(1.1107842,0,0,1.113877,216.59073,-42.227935)" />
      <path
         inkscape:connector-curvature="0"
         style="fill:#000000;stroke:none"
         id="path2360"
         d="m 185.02338,114.95908 c 9.4417,9.44171 10.9478,28.1515 -0.20566,39.30496 l 159.37302,159.37301 c 22.62217,22.62217 -8.21455,53.45889 -30.83673,30.83672 L 153.981,185.10075 c -10.8616,10.8616 -28.32145,11.58387 -41.21126,-0.58125 L 19.840733,96.815165 c -7.85206,-7.410594 2.7924,-18.638992 11.32894,-10.739061 l 70.060547,64.835856 9.23604,-9.23605 -70.650427,-65.425746 c -7.28098,-6.742544 2.86045,-17.784224 10.91642,-10.326517 l 70.355477,65.130793 9.54392,-9.54391 -70.573457,-65.34878 c -7.60266,-7.039815 2.39249,-17.623882 10.60853,-10.018648 l 70.278517,65.053828 9.38998,-9.38999 -70.573457,-65.34877 c -7.52279,-6.965859 3.22894,-18.318164 11.0685,-10.478604 z"
         sodipodi:nodetypes="ccsscsssccssccssccscc" />
      <path
         inkscape:connector-curvature="0"
         style="fill:#000000;stroke:none"
         id="path2362"
         d="M 294.98006,67.000175 47.468013,314.51224 c -22.12527,22.12527 9.09812,52.69353 30.89583,30.89583 l 98.206937,-98.20696 16.45188,16.45188 149.3051,-149.30511 C 377.08303,79.592611 329.73532,32.244909 294.98006,67.000175 z"
         sodipodi:nodetypes="sssccss" />
      <g
         style="font-size:131.76979065px;font-style:normal;font-weight:normal;line-height:125%;letter-spacing:0px;word-spacing:0px;fill:#000000;fill-opacity:1;stroke:none;font-family:Sans"
         id="text3830">
        <path
           d="m 810.21065,370.77493 -195.02961,0 0,-344.892027 45.86207,0 0,304.125747 172.3302,0 -23.16266,40.76628"
           style="font-size:474.37130737px;font-weight:bold;font-family:X360 by Redge;-inkscape-font-specification:X360 by Redge Bold"
           id="path2989" />
        <path
           d="m 1139.8153,232.26222 c -3e-4,25.01579 -2.7798,46.86587 -8.3386,65.55033 -5.4049,18.53018 -14.3611,33.97194 -26.8686,46.32532 -11.8905,11.73577 -25.788,20.30594 -41.6928,25.71056 -15.9053,5.40461 -34.4354,8.10692 -55.5904,8.10693 -21.61865,-10e-6 -40.4576,-2.85673 -56.51691,-8.57019 -16.05955,-5.71345 -29.57109,-14.1292 -40.53466,-25.2473 -12.5079,-12.66221 -21.54133,-27.94955 -27.10031,-45.86207 -5.40467,-17.91237 -8.10698,-39.91687 -8.10693,-66.01358 l 0,-206.379317 45.86207,0 0,208.695577 c -9e-5,18.68467 1.23525,33.43155 3.70602,44.24069 2.62501,10.80932 6.9487,20.61484 12.97109,29.41658 6.79427,10.0372 15.98212,17.60366 27.56357,22.69941 11.7356,5.09582 25.7876,7.64371 42.15606,7.64367 16.5225,4e-5 30.5745,-2.47065 42.156,-7.41205 11.5811,-5.09574 20.8462,-12.73941 27.7952,-22.93103 6.0221,-8.80174 10.2685,-18.83889 12.7395,-30.11146 2.6248,-11.42681 3.9374,-25.55602 3.9376,-42.38767 l 0,-209.853717 45.8621,0 0,206.379317"
           style="font-size:474.37130737px;font-weight:bold;font-family:X360 by Redge;-inkscape-font-specification:X360 by Redge Bold"
           id="path2991" />
        <path
           d="m 1490.7296,370.77493 -56.7485,0 -163.5284,-308.526648 0,308.526648 -42.8509,0 0,-344.892027 71.1094,0 149.1675,281.657967 0,-281.657967 42.8509,0 0,344.892027"
           style="font-size:474.37130737px;font-weight:bold;font-family:X360 by Redge;-inkscape-font-specification:X360 by Redge Bold"
           id="path2993" />
        <path
           d="m 1848.8243,345.75926 c -8.4932,3.70605 -16.2141,7.18044 -23.1626,10.4232 -6.7947,3.24278 -15.7509,6.63997 -26.8687,10.19157 -9.4197,2.93394 -19.6885,5.40462 -30.8063,7.41205 -10.9639,2.16184 -23.0857,3.24277 -36.3654,3.24277 -25.0159,0 -47.7925,-3.4744 -68.3299,-10.4232 -20.3832,-7.1032 -38.1412,-18.14406 -53.2741,-33.1226 -14.8242,-14.66964 -26.4055,-33.27696 -34.744,-55.82202 -8.3386,-22.69929 -12.5078,-49.02749 -12.5078,-78.98467 0,-28.41267 4.0148,-53.81436 12.0446,-76.20516 8.0296,-22.3903 19.611,-41.306455 34.744,-56.748519 14.6696,-14.978201 32.3504,-26.405103 53.0424,-34.280739 20.8463,-7.874958 43.9317,-11.812606 69.2564,-11.812957 18.5299,3.51e-4 36.9828,2.239406 55.3588,6.717171 18.5298,4.478455 39.0674,12.353752 61.6126,23.625915 l 0,54.432259 -3.4744,0 c -18.9936,-15.90475 -37.8326,-27.486069 -56.5168,-34.743997 -18.6848,-7.257325 -38.6819,-10.886138 -59.9913,-10.88645 -17.4494,3.12e-4 -33.2,2.857037 -47.2519,8.570184 -13.8977,5.559337 -26.3283,14.283931 -37.2919,26.173808 -10.6549,11.581595 -18.9934,26.251265 -25.0156,44.009055 -5.868,17.60384 -8.8019,37.98696 -8.8018,61.14943 -1e-4,24.24373 3.2427,45.09011 9.7283,62.53918 6.6399,17.4493 15.1328,31.65572 25.4789,42.6193 10.8091,11.42697 23.3942,19.91994 37.7551,25.47893 14.5152,5.40466 29.8025,8.10696 45.8621,8.10693 22.0815,3e-5 42.7735,-3.7832 62.0759,-11.3497 19.302,-7.56642 37.3688,-18.91611 54.2007,-34.04912 l 3.2427,0 0,53.73738"
           style="font-size:474.37130737px;font-weight:bold;font-family:X360 by Redge;-inkscape-font-specification:X360 by Redge Bold"
           id="path2995" />
        <path
           d="m 2177.9658,370.77493 -45.8621,0 0,-167.46604 -172.0986,0 0,167.46604 -45.862,0 0,-167.46604 -69.488,0 25.4789,-38.68164 44.0091,0 0,-138.744347 45.862,0 0,138.744347 172.0986,0 0,-138.744347 45.8621,0 0,344.892027"
           style="font-size:474.37130737px;font-weight:bold;font-family:X360 by Redge;-inkscape-font-specification:X360 by Redge Bold"
           id="path2997" />
        <path
           d="m 2530.9647,264.68994 c -3e-4,17.14046 -3.2431,32.27339 -9.7283,45.39882 -6.4858,13.12556 -15.2104,23.93479 -26.1738,32.42773 -12.9714,10.19158 -27.255,17.44921 -42.8509,21.7729 -15.442,4.3237 -35.1303,6.48554 -59.0648,6.48554 l -122.2989,0 0,-167.46604 -69.488,0 23.1627,-38.68164 46.3253,0 0,-138.744347 102.1474,0 c 25.1699,3.45e-4 44.0088,0.926851 56.5169,2.77952 12.5076,1.853353 24.4749,5.713793 35.9021,11.58133 12.662,6.640287 21.8498,15.210463 27.5636,25.710555 5.7131,10.346283 8.5699,22.776899 8.5701,37.291882 -2e-4,16.36853 -4.1695,30.34333 -12.5078,41.92442 -8.3388,11.42713 -19.4569,20.61497 -33.3542,27.56357 l 0,1.85301 c 23.3168,4.78714 41.6925,15.05591 55.1271,30.80634 13.434,15.59634 20.1512,35.36179 20.1515,59.29641 m -77.1316,-155.42146 c -3e-4,-8.33828 -1.39,-15.364284 -4.1693,-21.078017 -2.7798,-5.713169 -7.2579,-10.345696 -13.4344,-13.897597 -7.2578,-4.168979 -16.0596,-6.716869 -26.4054,-7.643679 -10.3462,-1.080619 -23.1628,-1.62108 -38.45,-1.621386 l -54.6639,0 0,99.599449 59.2964,0 c 14.3607,2e-4 25.7876,-0.69468 34.2808,-2.08464 8.4927,-1.54397 16.368,-4.63232 23.6259,-9.26507 7.2574,-4.63231 12.3532,-10.57739 15.2873,-17.83525 3.0881,-7.41181 4.6323,-16.1364 4.6326,-26.17381 m 29.4165,157.27448 c -2e-4,-13.89748 -2.0849,-24.93834 -6.2539,-33.12261 -4.1695,-8.18399 -11.736,-15.13279 -22.6994,-20.8464 -7.4123,-3.86028 -16.4457,-6.33096 -27.1003,-7.41205 -10.5006,-1.23517 -23.3173,-1.85284 -38.45,-1.85301 l -72.0359,0 0,128.32114 60.6862,0 c 20.0741,4e-5 36.5196,-1.00367 49.3364,-3.01114 12.8165,-2.16181 23.3169,-6.02224 31.5013,-11.58133 8.6471,-6.02223 14.9782,-12.89382 18.9933,-20.61477 4.0146,-7.72081 6.0221,-17.68074 6.0223,-29.87983"
           style="font-size:474.37130737px;font-weight:bold;font-family:X360 by Redge;-inkscape-font-specification:X360 by Redge Bold"
           id="path2999" />
        <path
           d="m 2606.4751,194.97033 c -1e-4,37.52365 12.2761,70.10576 36.8286,97.74643 24.089,28.10408 54.7409,42.15608 91.9558,42.15605 27.0228,3e-5 53.2738,-9.34223 78.753,-28.02682 34.126,-25.17001 51.1892,-60.30001 51.1895,-105.39011 -3e-4,-35.82471 -11.2728,-66.32219 -33.8175,-91.49252 -24.7071,-27.640483 -57.0576,-41.460857 -97.0515,-41.46116 -34.5898,3.03e-4 -64.4696,12.35371 -89.6395,37.06026 -25.479,25.17033 -38.2185,54.97293 -38.2184,89.40787 m -48.6416,0 c 0,-46.78835 18.2984,-87.09134 54.8955,-120.909091 34.8983,-32.118562 74.0431,-48.177991 117.4347,-48.178336 44.6265,3.45e-4 84.3118,13.357467 119.0561,40.071405 42.4645,32.119163 63.6969,76.668642 63.6973,133.648552 -4e-4,43.70035 -16.137,83.54009 -48.41,119.51934 -34.8987,38.14119 -76.9003,57.21177 -126.0049,57.21177 -48.3329,0 -89.794,-15.67339 -124.3835,-47.0202 -37.5235,-34.74392 -56.2852,-79.52502 -56.2852,-134.34344"
           style="font-size:474.37130737px;font-weight:bold;font-family:X360 by Redge;-inkscape-font-specification:X360 by Redge Bold"
           id="path3001" />
        <path
           d="m 3232.5618,25.882903 -119.0561,170.477187 118.8245,174.41484 -53.0425,0 -94.0404,-141.98711 -96.3567,141.98711 -50.0313,0 120.2142,-172.3302 -117.4347,-172.561827 52.8108,0 92.8823,140.134107 94.9669,-140.134107 50.263,0"
           style="font-size:474.37130737px;font-weight:bold;font-family:X360 by Redge;-inkscape-font-specification:X360 by Redge Bold"
           id="path3003" />
        <path
           d="m 3513.7564,210.95257 0,-34.04911 38.9133,0 c 28.2583,1.9e-4 48.487,-5.79047 60.6862,-17.372 12.3532,-11.58111 18.5299,-25.71032 18.5301,-42.38767 -2e-4,-18.221022 -6.8718,-32.659067 -20.6148,-43.314177 -13.5889,-10.808935 -30.652,-16.21355 -51.1894,-16.213864 -38.1413,3.14e-4 -64.5467,18.453216 -79.2163,55.358761 l -38.6817,0 c 22.0817,-59.450513 62.6935,-89.175899 121.8356,-89.176246 33.1996,3.47e-4 59.9911,8.879358 80.3744,26.63706 20.5374,17.603926 30.8061,38.836344 30.8064,63.697316 -3e-4,19.30246 -6.177,36.13398 -18.5301,50.49461 -12.3537,14.36104 -28.1043,23.39447 -47.2519,27.10031 21.6183,3.08853 40.1484,12.12196 55.5904,27.10031 15.5959,14.97866 23.394,34.35807 23.3943,58.13828 -3e-4,28.25852 -11.5816,52.11603 -34.744,71.57263 -23.0084,19.30222 -54.6641,28.95332 -94.9669,28.95332 -31.8102,0 -59.0649,-7.56646 -81.7642,-22.6994 -22.6994,-15.13291 -38.45,-39.6081 -47.2518,-73.42564 l 39.8398,0 c 12.0445,41.07517 41.5382,61.61271 88.4813,61.61268 30.5746,3e-5 52.5019,-6.48551 65.782,-19.45664 13.4341,-13.12544 20.1513,-28.72162 20.1515,-46.78857 -2e-4,-19.61094 -8.03,-35.43875 -24.0892,-47.48346 -15.9052,-12.19885 -38.2957,-18.29834 -67.1717,-18.2985 l -38.9133,0"
           style="font-size:474.37130737px;font-weight:bold;font-family:X360 by Redge;-inkscape-font-specification:X360 by Redge Bold"
           id="path3005" />
        <path
           d="m 3988.1279,110.65824 -38.9133,0 c -13.1257,-34.434858 -37.0605,-51.652419 -71.8042,-51.652731 -63.7747,3.12e-4 -96.3568,51.652991 -97.7465,154.958201 9.7283,-21.00063 23.9347,-37.21448 42.6193,-48.64158 18.8389,-11.4267 38.6815,-17.14015 59.5281,-17.14037 31.501,2.2e-4 57.9064,11.04108 79.2163,33.1226 21.3093,21.92749 31.9642,48.25569 31.9644,78.98468 -2e-4,31.81013 -11.3499,59.29646 -34.0491,82.45907 -22.5452,23.16267 -51.4985,34.74399 -86.86,34.74399 -40.3031,0 -72.3448,-15.13293 -96.125,-45.39881 -23.7804,-30.26581 -35.6705,-71.49531 -35.6705,-123.68861 0,-50.95765 11.1952,-94.4262 33.5859,-130.405788 22.5449,-36.133423 57.4432,-54.200281 104.6952,-54.200628 54.2004,3.47e-4 90.7202,28.953645 109.5594,86.859976 m -116.9715,232.78475 c 24.089,3e-5 43.7773,-7.95248 59.0648,-23.85754 15.4416,-15.90496 23.1624,-34.97553 23.1627,-57.21177 -3e-4,-21.92719 -7.4895,-40.68893 -22.4678,-56.28527 -14.9787,-15.75043 -33.586,-23.62573 -55.822,-23.62592 -23.0084,1.9e-4 -43.0827,8.26153 -60.2229,24.78405 -16.9861,16.36843 -25.479,35.59342 -25.479,57.67503 0,20.38323 7.6436,38.6045 22.9311,54.66388 15.2872,15.90506 34.8983,23.85757 58.8331,23.85754"
           style="font-size:474.37130737px;font-weight:bold;font-family:X360 by Redge;-inkscape-font-specification:X360 by Redge Bold"
           id="path3007" />
        <path
           d="m 4163.4691,377.4921 c -40.7664,0 -72.8852,-16.98594 -96.3567,-50.95785 -23.3171,-33.97183 -34.9756,-76.12783 -34.9756,-126.46813 0,-49.41346 11.1181,-91.10621 33.3543,-125.078374 22.236,-34.125992 54.5093,-51.189135 96.8199,-51.189482 44.1633,3.47e-4 77.2086,17.758369 99.1362,53.274121 22.0814,35.516335 33.1223,77.209085 33.1226,125.078375 -3e-4,46.7887 -11.35,87.70936 -34.0491,122.7621 -22.5453,35.05284 -54.8957,52.57924 -97.0516,52.57924 m 0.2316,-33.35423 c 30.4202,3e-5 52.5019,-12.97105 66.2452,-38.91327 13.8974,-26.09651 20.8462,-58.75583 20.8464,-97.97806 -2e-4,-43.08234 -7.1034,-78.90722 -21.3096,-107.474747 -14.0522,-28.566983 -36.5972,-42.85061 -67.635,-42.850923 -30.1116,3.13e-4 -52.1161,13.0486 -66.0136,39.144898 -13.7432,26.096842 -20.6148,60.377552 -20.6147,102.842212 -10e-5,44.16361 7.2575,79.44803 21.7729,105.85337 14.6696,26.25105 36.9057,39.37655 66.7084,39.37652"
           style="font-size:474.37130737px;font-weight:bold;font-family:X360 by Redge;-inkscape-font-specification:X360 by Redge Bold"
           id="path3009" />
      </g>
    </g>
  </g>
</svg>
